<svg width="459" height="80" viewBox="0 0 459 80" fill="none" xmlns="http://www.w3.org/2000/svg">
<path d="M119 36.12V42.9H101.54V53.64H114.92V60.3H101.54V78H93.14V36.12H119ZM122.796 61.26C122.796 57.9 123.456 54.92 124.776 52.32C126.136 49.72 127.956 47.72 130.236 46.32C132.556 44.92 135.136 44.22 137.976 44.22C140.456 44.22 142.616 44.72 144.456 45.72C146.336 46.72 147.836 47.98 148.956 49.5V44.76H157.416V78H148.956V73.14C147.876 74.7 146.376 76 144.456 77.04C142.576 78.04 140.396 78.54 137.916 78.54C135.116 78.54 132.556 77.82 130.236 76.38C127.956 74.94 126.136 72.92 124.776 70.32C123.456 67.68 122.796 64.66 122.796 61.26ZM148.956 61.38C148.956 59.34 148.556 57.6 147.756 56.16C146.956 54.68 145.876 53.56 144.516 52.8C143.156 52 141.696 51.6 140.136 51.6C138.576 51.6 137.136 51.98 135.816 52.74C134.496 53.5 133.416 54.62 132.576 56.1C131.776 57.54 131.376 59.26 131.376 61.26C131.376 63.26 131.776 65.02 132.576 66.54C133.416 68.02 134.496 69.16 135.816 69.96C137.176 70.76 138.616 71.16 140.136 71.16C141.696 71.16 143.156 70.78 144.516 70.02C145.876 69.22 146.956 68.1 147.756 66.66C148.556 65.18 148.956 63.42 148.956 61.38ZM174.02 49.92C175.1 48.16 176.5 46.78 178.22 45.78C179.98 44.78 181.98 44.28 184.22 44.28V53.1H182C179.36 53.1 177.36 53.72 176 54.96C174.68 56.2 174.02 58.36 174.02 61.44V78H165.62V44.76H174.02V49.92ZM231.158 44.28C235.238 44.28 238.518 45.54 240.998 48.06C243.518 50.54 244.778 54.02 244.778 58.5V78H236.378V59.64C236.378 57.04 235.718 55.06 234.398 53.7C233.078 52.3 231.278 51.6 228.998 51.6C226.718 51.6 224.898 52.3 223.538 53.7C222.218 55.06 221.558 57.04 221.558 59.64V78H213.158V59.64C213.158 57.04 212.498 55.06 211.178 53.7C209.858 52.3 208.058 51.6 205.778 51.6C203.458 51.6 201.618 52.3 200.258 53.7C198.938 55.06 198.278 57.04 198.278 59.64V78H189.878V44.76H198.278V48.78C199.358 47.38 200.738 46.28 202.418 45.48C204.138 44.68 206.018 44.28 208.058 44.28C210.658 44.28 212.978 44.84 215.018 45.96C217.058 47.04 218.638 48.6 219.758 50.64C220.838 48.72 222.398 47.18 224.438 46.02C226.518 44.86 228.758 44.28 231.158 44.28ZM283.649 60.66C283.649 61.86 283.569 62.94 283.409 63.9H259.109C259.309 66.3 260.149 68.18 261.629 69.54C263.109 70.9 264.929 71.58 267.089 71.58C270.209 71.58 272.429 70.24 273.749 67.56H282.809C281.849 70.76 280.009 73.4 277.289 75.48C274.569 77.52 271.229 78.54 267.269 78.54C264.069 78.54 261.189 77.84 258.629 76.44C256.109 75 254.129 72.98 252.689 70.38C251.289 67.78 250.589 64.78 250.589 61.38C250.589 57.94 251.289 54.92 252.689 52.32C254.089 49.72 256.049 47.72 258.569 46.32C261.089 44.92 263.989 44.22 267.269 44.22C270.429 44.22 273.249 44.9 275.729 46.26C278.249 47.62 280.189 49.56 281.549 52.08C282.949 54.56 283.649 57.42 283.649 60.66ZM274.949 58.26C274.909 56.1 274.129 54.38 272.609 53.1C271.089 51.78 269.229 51.12 267.029 51.12C264.949 51.12 263.189 51.76 261.749 53.04C260.349 54.28 259.489 56.02 259.169 58.26H274.949ZM298.181 49.92C299.261 48.16 300.661 46.78 302.381 45.78C304.141 44.78 306.141 44.28 308.381 44.28V53.1H306.161C303.521 53.1 301.521 53.72 300.161 54.96C298.841 56.2 298.181 58.36 298.181 61.44V78H289.781V44.76H298.181V49.92ZM311.998 57C311.998 52.88 312.918 49.2 314.758 45.96C316.638 42.68 319.178 40.14 322.378 38.34C325.618 36.5 329.238 35.58 333.238 35.58C337.918 35.58 342.018 36.78 345.538 39.18C349.058 41.58 351.518 44.9 352.918 49.14H343.258C342.298 47.14 340.938 45.64 339.178 44.64C337.458 43.64 335.458 43.14 333.178 43.14C330.738 43.14 328.558 43.72 326.638 44.88C324.758 46 323.278 47.6 322.198 49.68C321.158 51.76 320.638 54.2 320.638 57C320.638 59.76 321.158 62.2 322.198 64.32C323.278 66.4 324.758 68.02 326.638 69.18C328.558 70.3 330.738 70.86 333.178 70.86C335.458 70.86 337.458 70.36 339.178 69.36C340.938 68.32 342.298 66.8 343.258 64.8H352.918C351.518 69.08 349.058 72.42 345.538 74.82C342.058 77.18 337.958 78.36 333.238 78.36C329.238 78.36 325.618 77.46 322.378 75.66C319.178 73.82 316.638 71.28 314.758 68.04C312.918 64.8 311.998 61.12 311.998 57ZM357.933 61.26C357.933 57.9 358.593 54.92 359.913 52.32C361.273 49.72 363.093 47.72 365.373 46.32C367.693 44.92 370.273 44.22 373.113 44.22C375.593 44.22 377.753 44.72 379.593 45.72C381.473 46.72 382.973 47.98 384.093 49.5V44.76H392.553V78H384.093V73.14C383.013 74.7 381.513 76 379.593 77.04C377.713 78.04 375.533 78.54 373.053 78.54C370.253 78.54 367.693 77.82 365.373 76.38C363.093 74.94 361.273 72.92 359.913 70.32C358.593 67.68 357.933 64.66 357.933 61.26ZM384.093 61.38C384.093 59.34 383.693 57.6 382.893 56.16C382.093 54.68 381.013 53.56 379.653 52.8C378.293 52 376.833 51.6 375.273 51.6C373.713 51.6 372.273 51.98 370.953 52.74C369.633 53.5 368.553 54.62 367.713 56.1C366.913 57.54 366.513 59.26 366.513 61.26C366.513 63.26 366.913 65.02 367.713 66.54C368.553 68.02 369.633 69.16 370.953 69.96C372.313 70.76 373.753 71.16 375.273 71.16C376.833 71.16 378.293 70.78 379.653 70.02C381.013 69.22 382.093 68.1 382.893 66.66C383.693 65.18 384.093 63.42 384.093 61.38ZM415.997 51.66H410.177V78H401.657V51.66H397.877V44.76H401.657V43.08C401.657 39 402.817 36 405.137 34.08C407.457 32.16 410.957 31.26 415.637 31.38V38.46C413.597 38.42 412.177 38.76 411.377 39.48C410.577 40.2 410.177 41.5 410.177 43.38V44.76H415.997V51.66ZM452.341 60.66C452.341 61.86 452.261 62.94 452.101 63.9H427.801C428.001 66.3 428.841 68.18 430.321 69.54C431.801 70.9 433.621 71.58 435.781 71.58C438.901 71.58 441.121 70.24 442.441 67.56H451.501C450.541 70.76 448.701 73.4 445.981 75.48C443.261 77.52 439.921 78.54 435.961 78.54C432.761 78.54 429.881 77.84 427.321 76.44C424.801 75 422.821 72.98 421.381 70.38C419.981 67.78 419.281 64.78 419.281 61.38C419.281 57.94 419.981 54.92 421.381 52.32C422.781 49.72 424.741 47.72 427.261 46.32C429.781 44.92 432.681 44.22 435.961 44.22C439.121 44.22 441.941 44.9 444.421 46.26C446.941 47.62 448.881 49.56 450.241 52.08C451.641 54.56 452.341 57.42 452.341 60.66ZM443.641 58.26C443.601 56.1 442.821 54.38 441.301 53.1C439.781 51.78 437.921 51.12 435.721 51.12C433.641 51.12 431.881 51.76 430.441 53.04C429.041 54.28 428.181 56.02 427.861 58.26H443.641Z" fill="#424242"/>
<g clip-path="url(#clip0_3_22)">
<path d="M32.57 41.8766C31.5434 38.0433 30.1334 33.7866 28.24 30C32.1734 32.81 34.77 35.61 36.4934 38.0966C37.3934 39.3933 39.27 39.4733 40.35 38.32C40.9867 37.64 41.61 36.9333 42.2167 36.2033C43.83 34.26 43.7567 31.4033 42.0834 29.5133C39.5 26.5966 36.3734 23.1733 33.24 19.9966C37.94 20.5533 41.8134 22.39 44.8634 24.5333C46.51 25.69 48.7434 24.7566 49.1967 22.7966C49.4434 21.7266 49.6334 20.6233 49.7534 19.5066C50.0634 16.65 48.4934 13.8866 45.8167 12.8366C42.74 11.6266 39.5367 10.5733 36.5734 9.99664C39.5034 8.46331 42.31 7.79998 44.8767 7.65998C46.5 7.57331 47.39 5.64998 46.38 4.37331C44.2767 1.71664 41.11 -0.00335693 36.5667 -0.00335693C26.5634 -0.00335693 24.8934 6.66664 24.8934 6.66664C24.8934 6.66664 23.2267 -0.00335693 13.22 -0.00335693C8.68003 -2.35999e-05 5.51337 1.71998 3.41003 4.37664C2.40003 5.65331 3.29003 7.57664 4.9167 7.66331C7.49003 7.79998 10.3034 8.46331 13.24 9.99998C10.27 10.58 7.0567 11.6366 3.97337 12.85C1.2967 13.9033 -0.273299 16.6666 0.0367009 19.5233C0.156701 20.64 0.346701 21.7466 0.596701 22.8166C1.05003 24.7766 3.2867 25.7066 4.93003 24.55C7.98337 22.4 11.8634 20.5566 16.57 20C13.4334 23.18 10.3 26.61 7.7167 29.53C6.04003 31.42 5.97003 34.28 7.58337 36.22C8.19003 36.95 8.8167 37.6533 9.45337 38.3366C10.53 39.49 12.41 39.41 13.31 38.11C15.0334 35.62 17.6334 32.8133 21.5734 30C19.6767 33.79 18.2667 38.0533 17.24 41.8933C16.76 43.69 17.38 45.6 18.82 46.7766C19.5934 47.41 20.3234 48.0033 20.9867 48.5666C23.2534 50.48 26.5367 50.48 28.8034 48.5666C29.4734 48 30.21 47.4 30.99 46.7633C32.43 45.5866 33.05 43.6766 32.57 41.88V41.8766ZM33.4967 27.21C34.9967 26.01 36.82 28.75 37.4567 29.7966C37.86 30.3733 38.1367 31.37 37.41 31.7966C36.92 32.0566 36.33 31.7133 35.9034 31.36C34.99 30.6033 32 28.4066 33.4967 27.21ZM6.48003 19.65C5.81337 19.6233 5.01337 19.5066 4.4867 19.0766C3.96003 18.45 4.5067 17.62 5.0367 17.18C6.45337 15.8766 9.72337 13.2433 11.4434 15.4433C13.03 17.4733 8.06337 19.57 6.48003 19.65ZM77.0134 66.1566C73.5767 64.17 69.5667 62.16 65.5534 60.82C70.32 60.0266 74.14 60.17 77.1167 60.71C78.67 60.99 80.0534 59.72 80 58.1433C79.9667 57.1933 79.91 56.2366 79.82 55.2733C79.5867 52.78 77.54 50.8433 75.04 50.6933C71.1434 50.4566 66.4934 50.2466 62.0167 50.2133C65.73 47.2833 69.7734 45.8433 73.4434 45.2033C75.4267 44.8566 76.3467 42.62 75.28 40.9133C74.6967 39.98 74.05 39.0666 73.3467 38.1933C71.5467 35.9533 68.4834 35.1133 65.8467 36.26C62.8167 37.58 59.8067 39.1033 57.3034 40.7866C58.2934 37.63 59.8067 35.1766 61.5234 33.2633C62.61 32.0533 61.88 30.0633 60.2634 29.8766C56.8967 29.4833 53.44 30.5066 50.2267 33.72C43.1534 40.7933 46.69 46.69 46.69 46.69C46.69 46.69 40.7934 43.1533 33.72 50.2266C30.5067 53.44 29.4867 56.8933 29.8767 60.26C30.0634 61.8766 32.0567 62.6066 33.2667 61.52C35.18 59.7966 37.64 58.2766 40.8034 57.2866C39.1134 59.7966 37.5867 62.8166 36.2667 65.8533C35.12 68.49 35.9634 71.5533 38.2034 73.3533C39.08 74.0566 39.9934 74.7033 40.9267 75.2866C42.6334 76.35 44.8734 75.43 45.2167 73.4466C45.8567 69.77 47.2934 65.72 50.23 61.9966C50.26 66.48 50.4734 71.1366 50.71 75.0366C50.86 77.5366 52.8 79.5833 55.29 79.8166C56.2534 79.9066 57.2134 79.9633 58.1634 79.9966C59.74 80.05 61.0134 78.6633 60.73 77.11C60.1867 74.13 60.04 70.3066 60.8367 65.5333C62.1767 69.5533 64.1934 73.5666 66.18 77.0066C67.11 78.6166 68.9 79.5266 70.75 79.34C71.7434 79.24 72.68 79.1466 73.55 79.0733C76.5034 78.8233 78.8267 76.5 79.0767 73.5466C79.15 72.6733 79.2467 71.7266 79.3467 70.7233C79.5334 68.8733 78.62 67.0866 77.0134 66.1566ZM42.8467 68.89C42.3567 69.3433 41.7067 69.8266 41.03 69.8933C40.2134 69.8233 40.0134 68.8466 40.08 68.1633C40.16 66.24 40.61 62.0666 43.3834 62.4066C45.94 62.72 43.9134 67.7133 42.8467 68.89ZM72.7634 73.1266C71.5067 75.73 69.1834 72.5 68.36 70.9633C67.95 70.0533 67.6934 69.09 68.3834 68.23C68.5934 67.9666 68.84 67.8066 69.1034 67.7233C69.7867 67.51 70.58 67.84 71.17 68.3033C71.72 68.7366 72.2167 69.24 72.64 69.7966C73.36 70.74 73.2634 72.0966 72.7667 73.13L72.7634 73.1266ZM18.75 54.0633C20.1867 55.2166 20.42 57.3133 19.27 58.75C14.66 64.51 13.42 72.2566 13.1034 75.3233C12.82 77.9933 10.5867 80 7.90337 80C5.58337 80 3.5167 78.44 2.8767 76.21C1.98337 73.08 -0.0899658 64.91 -0.0899658 56.6666C-0.0899658 51.5833 1.7467 45.8766 1.82337 45.6333C2.3967 43.8866 4.2767 42.9266 6.02337 43.4933C7.77003 44.0633 8.73003 45.94 8.1667 47.6933C8.15003 47.7433 6.5767 52.65 6.5767 56.6633C6.5767 60.5833 7.1067 64.5166 7.73003 67.7766C8.8067 63.69 10.71 58.77 14.0567 54.58C15.21 53.1466 17.3034 52.9066 18.7434 54.06L18.75 54.0633Z" fill="#424242"/>
</g>
<defs>
<clipPath id="clip0_3_22">
<rect width="80" height="80" fill="white"/>
</clipPath>
</defs>
</svg>
