<svg width="24" height="24" viewBox="0 0 24 24" fill="none" xmlns="http://www.w3.org/2000/svg">
<g clip-path="url(#clip0_3_27)">
<path d="M9.77099 12.563C9.46299 11.413 9.03999 10.136 8.47199 9.00002C9.65199 9.84302 10.431 10.683 10.948 11.429C11.218 11.818 11.781 11.842 12.105 11.496C12.296 11.292 12.483 11.08 12.665 10.861C13.149 10.278 13.127 9.42102 12.625 8.85402C11.85 7.97902 10.912 6.95202 9.97199 5.99902C11.382 6.16602 12.544 6.71702 13.459 7.36002C13.953 7.70702 14.623 7.42702 14.759 6.83902C14.833 6.51802 14.89 6.18702 14.926 5.85202C15.019 4.99502 14.548 4.16602 13.745 3.85102C12.822 3.48802 11.861 3.17202 10.972 2.99902C11.851 2.53902 12.693 2.34002 13.463 2.29802C13.95 2.27202 14.217 1.69502 13.914 1.31202C13.283 0.515024 12.333 -0.000976562 10.97 -0.000976562C7.96899 -0.000976562 7.46799 2.00002 7.46799 2.00002C7.46799 2.00002 6.96799 -0.000976562 3.96599 -0.000976562C2.60399 2.34375e-05 1.65399 0.516023 1.02299 1.31302C0.719992 1.69602 0.986992 2.27302 1.47499 2.29902C2.24699 2.34002 3.09099 2.53902 3.97199 3.00002C3.08099 3.17402 2.11699 3.49102 1.19199 3.85502C0.388992 4.17102 -0.0820081 5.00002 0.0109919 5.85702C0.0469919 6.19202 0.103992 6.52402 0.178992 6.84502C0.314992 7.43302 0.985992 7.71202 1.47899 7.36502C2.39499 6.72002 3.55899 6.16702 4.97099 6.00002C4.02999 6.95402 3.08999 7.98302 2.31499 8.85902C1.81199 9.42602 1.79099 10.284 2.27499 10.866C2.45699 11.085 2.64499 11.296 2.83599 11.501C3.15899 11.847 3.72299 11.823 3.99299 11.433C4.50999 10.686 5.28999 9.84402 6.47199 9.00002C5.90299 10.137 5.47999 11.416 5.17199 12.568C5.02799 13.107 5.21399 13.68 5.64599 14.033C5.87799 14.223 6.09699 14.401 6.29599 14.57C6.97599 15.144 7.96099 15.144 8.64099 14.57C8.84199 14.4 9.06299 14.22 9.29699 14.029C9.72899 13.676 9.91499 13.103 9.77099 12.564V12.563ZM10.049 8.16302C10.499 7.80302 11.046 8.62502 11.237 8.93902C11.358 9.11202 11.441 9.41102 11.223 9.53902C11.076 9.61702 10.899 9.51402 10.771 9.40802C10.497 9.18102 9.59999 8.52202 10.049 8.16302ZM1.94399 5.89502C1.74399 5.88702 1.50399 5.85202 1.34599 5.72302C1.18799 5.53502 1.35199 5.28602 1.51099 5.15402C1.93599 4.76302 2.91699 3.97302 3.43299 4.63302C3.90899 5.24202 2.41899 5.87102 1.94399 5.89502ZM23.104 19.847C22.073 19.251 20.87 18.648 19.666 18.246C21.096 18.008 22.242 18.051 23.135 18.213C23.601 18.297 24.016 17.916 24 17.443C23.99 17.158 23.973 16.871 23.946 16.582C23.876 15.834 23.262 15.253 22.512 15.208C21.343 15.137 19.948 15.074 18.605 15.064C19.719 14.185 20.932 13.753 22.033 13.561C22.628 13.457 22.904 12.786 22.584 12.274C22.409 11.994 22.215 11.72 22.004 11.458C21.464 10.786 20.545 10.534 19.754 10.878C18.845 11.274 17.942 11.731 17.191 12.236C17.488 11.289 17.942 10.553 18.457 9.97902C18.783 9.61602 18.564 9.01902 18.079 8.96302C17.069 8.84502 16.032 9.15202 15.068 10.116C12.946 12.238 14.007 14.007 14.007 14.007C14.007 14.007 12.238 12.946 10.116 15.068C9.15199 16.032 8.84599 17.068 8.96299 18.078C9.01899 18.563 9.61699 18.782 9.97999 18.456C10.554 17.939 11.292 17.483 12.241 17.186C11.734 17.939 11.276 18.845 10.88 19.756C10.536 20.547 10.789 21.466 11.461 22.006C11.724 22.217 11.998 22.411 12.278 22.586C12.79 22.905 13.462 22.629 13.565 22.034C13.757 20.931 14.188 19.716 15.069 18.599C15.078 19.944 15.142 21.341 15.213 22.511C15.258 23.261 15.84 23.875 16.587 23.945C16.876 23.972 17.164 23.989 17.449 23.999C17.922 24.015 18.304 23.599 18.219 23.133C18.056 22.239 18.012 21.092 18.251 19.66C18.653 20.866 19.258 22.07 19.854 23.102C20.133 23.585 20.67 23.858 21.225 23.802C21.523 23.772 21.804 23.744 22.065 23.722C22.951 23.647 23.648 22.95 23.723 22.064C23.745 21.802 23.774 21.518 23.804 21.217C23.86 20.662 23.586 20.126 23.104 19.847ZM12.854 20.667C12.707 20.803 12.512 20.948 12.309 20.968C12.064 20.947 12.004 20.654 12.024 20.449C12.048 19.872 12.183 18.62 13.015 18.722C13.782 18.816 13.174 20.314 12.854 20.667ZM21.829 21.938C21.452 22.719 20.755 21.75 20.508 21.289C20.385 21.016 20.308 20.727 20.515 20.469C20.578 20.39 20.652 20.342 20.731 20.317C20.936 20.253 21.174 20.352 21.351 20.491C21.516 20.621 21.665 20.772 21.792 20.939C22.008 21.222 21.979 21.629 21.83 21.939L21.829 21.938ZM5.62499 16.219C6.05599 16.565 6.12599 17.194 5.78099 17.625C4.39799 19.353 4.02599 21.677 3.93099 22.597C3.84599 23.398 3.17599 24 2.37099 24C1.67499 24 1.05499 23.532 0.862992 22.863C0.594992 21.924 -0.0270081 19.473 -0.0270081 17C-0.0270081 15.475 0.523992 13.763 0.546992 13.69C0.718992 13.166 1.28299 12.878 1.80699 13.048C2.33099 13.219 2.61899 13.782 2.44999 14.308C2.44499 14.323 1.97299 15.795 1.97299 16.999C1.97299 18.175 2.13199 19.355 2.31899 20.333C2.64199 19.107 3.21299 17.631 4.21699 16.374C4.56299 15.944 5.19099 15.872 5.62299 16.218L5.62499 16.219Z" fill="#424242"/>
</g>
<defs>
<clipPath id="clip0_3_27">
<rect width="24" height="24" fill="white"/>
</clipPath>
</defs>
</svg>
